<svg width="80" height="79" viewBox="0 0 80 79" fill="none" xmlns="http://www.w3.org/2000/svg">
  <style>
    path[fill="#020202"] {
      fill: #020202;
    }

    @media (prefers-color-scheme: dark) {
      path[fill="#020202"] {
        fill: white;
      }
    }
  </style>
  <path d="M45.6077 40.9833C46.1077 40.6166 46.5077 40.65 48.241 41.4833C49.9743 42.3166 52.3743 43.7166 57.2077 46.25C57.3502 46.3173 57.4776 46.4128 57.5822 46.5307C57.6868 46.6486 57.7664 46.7865 57.8163 46.936C57.8661 47.0855 57.8851 47.2436 57.8722 47.4007C57.8593 47.5578 57.8146 47.7106 57.741 47.85C57.6771 47.9914 57.5849 48.1182 57.4701 48.2225C57.3552 48.3268 57.2202 48.4064 57.0733 48.4564C56.9265 48.5064 56.7709 48.5257 56.6162 48.5131C56.4616 48.5006 56.3112 48.4564 56.1743 48.3833C52.841 46.85 50.2743 45.6833 48.6743 45.05C49.2743 47.0166 50.2743 49.85 51.4077 52.6166C52.3072 54.9041 53.3538 57.131 54.541 59.2833C54.8674 59.9905 55.332 60.6252 55.9077 61.15C55.9077 61.15 56.1743 61.15 56.341 61.15L57.6077 60.95C58.8077 60.65 60.0077 60.2166 60.6743 60.0166L74.5077 55.6833L70.0743 53.7833C69.8094 53.6857 69.5939 53.487 69.4752 53.2309C69.3565 52.9747 69.3442 52.6819 69.441 52.4166C69.4891 52.2896 69.5617 52.1734 69.6548 52.0745C69.7478 51.9756 69.8595 51.896 69.9833 51.8403C70.1071 51.7846 70.2407 51.7538 70.3765 51.7497C70.5122 51.7457 70.6474 51.7684 70.7743 51.8166C72.9077 52.55 79.1743 54.8833 79.241 54.9166C79.4981 55.0144 79.7075 55.2076 79.8255 55.4561C79.9436 55.7045 79.961 55.9889 79.8743 56.25C79.2566 58.1597 78.7667 60.1085 78.4077 62.0833C77.8077 65.1166 77.3743 68.15 76.8743 71.1833C76.7551 72.6488 76.5548 74.1066 76.2743 75.55C76.0739 76.5472 75.5316 77.4432 74.741 78.0833C73.9546 78.5756 73.0336 78.8088 72.1077 78.75C70.664 78.5739 69.2442 78.2385 67.8743 77.75C65.6077 77.0833 63.341 76.35 61.2077 75.5833C59.0743 74.8166 56.7743 73.9833 54.541 73.15C51.2077 71.8833 48.841 70.9166 46.2077 69.8166C44.541 69.0833 42.8743 68.2833 40.7743 67.2833C39.125 66.552 37.6313 65.511 36.3743 64.2166C35.645 63.3917 35.2628 62.3168 35.3077 61.2166C36.1598 57.4947 37.5405 53.9139 39.4077 50.5833C40.9913 47.096 43.0804 43.8612 45.6077 40.9833ZM39.8743 62.5166C40.6653 63.065 41.515 63.5234 42.4077 63.8833L56.1077 69.3833L69.141 74.2166C69.8077 74.45 70.741 74.8833 71.641 75.1166C72.541 75.35 73.0743 76.05 73.4077 73.6166C73.6743 72.4166 73.8077 71.15 73.9077 70.5833C74.641 67.5833 75.241 64.55 76.041 61.55C76.3413 60.2869 76.7085 59.0407 77.141 57.8166C75.241 58.5833 71.9077 59.95 68.5743 61.15C66.0077 62.1166 63.5077 63.05 61.7077 63.65C60.1439 64.2509 58.525 64.6975 56.8743 64.9833C55.7353 65.215 54.5509 65.0255 53.541 64.45C51.2738 62.0769 49.6054 59.1972 48.6743 56.05C47.3149 52.52 46.2011 48.9003 45.341 45.2166C44.341 46.9166 43.141 49.3833 42.0077 51.8833C40.4592 54.9026 39.3374 58.1222 38.6743 61.45C38.8077 61.8833 39.3743 62.1833 39.8743 62.5166Z" fill="#FF550C" />
  <path d="M28.3407 5.71673C27.6089 6.91317 27.3587 8.34287 27.6407 9.71673C27.6407 10.1167 29.1074 12.0167 29.4407 12.8834C29.5713 13.1596 29.639 13.4613 29.639 13.7667C29.639 14.0722 29.5713 14.3739 29.4407 14.6501C29.1648 15.155 28.7628 15.5799 28.274 15.8834C27.674 16.2834 26.874 16.4834 26.374 16.8167C25.3839 17.4797 24.5437 18.3427 23.9074 19.3501C23.6103 19.7189 23.4142 20.1586 23.3382 20.6261C23.2622 21.0936 23.309 21.5728 23.474 22.0167C23.6863 22.4189 23.9685 22.7801 24.3074 23.0834C24.6877 23.3947 25.1013 23.663 25.5407 23.8834C26.0383 24.0465 26.5184 24.2586 26.974 24.5167C27.1605 24.6215 27.3224 24.7649 27.4489 24.9374C27.5753 25.1099 27.6635 25.3074 27.7074 25.5167C27.7338 25.8546 27.6913 26.1942 27.5824 26.5151C27.4736 26.836 27.3006 27.1314 27.074 27.3834C26.374 28.2501 24.9407 29.3501 24.674 30.0501C24.4825 30.5189 24.4156 31.0293 24.4798 31.5317C24.5441 32.034 24.7373 32.5112 25.0407 32.9167C26.3813 34.3463 28.0045 35.4815 29.8074 36.2501C29.9309 36.3103 30.0411 36.3946 30.1317 36.4979C30.2222 36.6013 30.2912 36.7217 30.3347 36.8521C30.3782 36.9824 30.3952 37.1202 30.3848 37.2572C30.3743 37.3942 30.3367 37.5278 30.274 37.6501C30.1457 37.9019 29.9226 38.0924 29.6539 38.1799C29.3852 38.2674 29.0927 38.2447 28.8407 38.1167C26.7334 37.2898 24.8166 36.0422 23.2074 34.4501C22.6297 33.7564 22.2478 32.9209 22.1013 32.0301C21.9548 31.1393 22.049 30.2256 22.374 29.3834C22.7263 28.188 23.2786 27.061 24.0074 26.0501C23.4832 25.7982 22.9908 25.4849 22.5407 25.1167C21.9114 24.6284 21.3894 24.0157 21.0074 23.3167C20.6447 22.6102 20.4555 21.8275 20.4555 21.0334C20.4555 20.2393 20.6447 19.4566 21.0074 18.7501C21.8219 16.8941 23.1235 15.2931 24.774 14.1167L25.7407 13.5834C25.1997 12.6891 24.7847 11.7244 24.5074 10.7167C24.1435 9.36558 24.0743 7.95202 24.3044 6.57179C24.5344 5.19155 25.0583 3.87686 25.8407 2.71673C26.4384 1.84032 27.2532 1.13391 28.2055 0.666517C29.1578 0.199124 30.2151 -0.0132758 31.274 0.0500641C32.5561 0.0930109 33.8042 0.473029 34.8926 1.15185C35.9811 1.83066 36.8714 2.78431 37.474 3.91673C38.5802 6.74622 39.3303 9.7022 39.7074 12.7167C40.3375 15.6004 41.3112 18.3982 42.6074 21.0501C43.8405 23.6339 45.5478 25.9631 47.6407 27.9167C48.2407 28.4501 49.6074 29.7834 50.974 30.9834C51.6148 31.5317 52.2943 32.033 53.0074 32.4834C54.452 30.9739 56.0621 29.6321 57.8074 28.4834C57.3741 25.3427 57.3741 22.1574 57.8074 19.0167C58.1897 16.6184 59.1131 14.3386 60.5074 12.3501C61.5407 10.9501 63.8407 9.1834 65.174 7.21673C65.4996 6.88875 65.742 6.48772 65.8812 6.04706C66.0203 5.6064 66.0522 5.13886 65.974 4.6834C65.9024 4.52386 65.7914 4.38512 65.6514 4.28018C65.5115 4.17524 65.3473 4.10753 65.174 4.0834C64.4748 3.85783 63.7415 3.7563 63.0074 3.7834C61.4086 3.77606 59.8274 4.11731 58.374 4.7834C57.9407 5.05006 57.874 5.55006 57.7074 5.91673C57.5285 6.3877 57.2934 6.83537 57.0074 7.25006C56.842 7.48197 56.6393 7.68474 56.4074 7.85006C56.0106 8.15212 55.5371 8.33689 55.0407 8.3834C54.1588 8.39226 53.2778 8.32534 52.4074 8.1834C51.6999 8.1903 50.9996 8.32584 50.3407 8.5834C49.701 8.85331 49.1226 9.2502 48.6407 9.75006C48.373 10.0755 48.1694 10.4488 48.0407 10.8501C47.8932 11.2671 47.8254 11.708 47.8407 12.1501C47.8407 12.3834 48.2074 13.2834 48.2407 13.8501C48.2817 14.0885 48.2733 14.3329 48.2159 14.568C48.1586 14.8031 48.0536 15.0239 47.9074 15.2167C47.7987 15.3276 47.6691 15.4157 47.526 15.4758C47.3829 15.5359 47.2292 15.5669 47.074 15.5669C46.9188 15.5669 46.7652 15.5359 46.6221 15.4758C46.479 15.4157 46.3493 15.3276 46.2407 15.2167C46.2407 15.2167 45.6407 14.9501 45.3074 12.2167C45.2428 11.4663 45.3105 10.7104 45.5074 9.9834C45.8002 9.31038 46.2188 8.69944 46.7407 8.1834C47.3975 7.28823 48.2534 6.55792 49.2407 6.05006C50.9084 5.31215 52.7174 4.94808 54.5407 4.9834C54.6941 4.42901 54.9065 3.89262 55.174 3.3834C55.4774 2.77386 55.9376 2.25612 56.5074 1.8834C58.9133 0.532016 61.651 -0.114874 64.4074 0.0167308C65.6143 -0.0524507 66.8123 0.26168 67.83 0.914227C68.8478 1.56677 69.6332 2.52434 70.074 3.65006C70.3243 4.47365 70.3913 5.34202 70.2704 6.19425C70.1494 7.04648 69.8435 7.86194 69.374 8.5834C67.5562 10.7773 65.5605 12.8175 63.4074 14.6834C62.1711 16.1478 61.2721 17.8661 60.774 19.7167C60.1855 22.2952 59.95 24.9416 60.074 27.5834C60.4106 27.4741 60.7565 27.396 61.1074 27.3501C63.0141 27.1269 64.9466 27.367 66.7407 28.0501C68.4471 28.6151 69.9443 29.68 71.038 31.1066C72.1317 32.5331 72.7714 34.2555 72.874 36.0501C72.8496 37.6345 72.4612 39.1921 71.7387 40.6024C71.0162 42.0127 69.979 43.2379 68.7074 44.1834C68.724 44.4276 68.724 44.6726 68.7074 44.9167C68.6642 45.6368 68.5526 46.3511 68.374 47.0501L67.9074 48.9501C67.7007 50.0512 67.1101 51.0434 66.2407 51.7501C65.5074 52.1167 64.474 52.2501 63.374 50.8167L62.674 49.7501L60.074 46.0501C59.9315 45.8002 59.8834 45.5074 59.9387 45.225C59.9939 44.9427 60.1487 44.6896 60.3749 44.5118C60.6012 44.3341 60.8837 44.2435 61.1711 44.2567C61.4585 44.2698 61.7316 44.3858 61.9407 44.5834L64.7407 48.5501L65.0074 48.9501C65.1162 48.783 65.2056 48.604 65.274 48.4167L65.674 46.5834C65.674 46.1167 65.674 45.6167 65.874 45.1167C65.9405 44.7195 65.9405 44.314 65.874 43.9167C65.8541 43.6912 65.8892 43.4642 65.9763 43.2552C66.0634 43.0462 66.1999 42.8614 66.374 42.7167C67.3877 42.0122 68.2188 41.0763 68.7985 39.9865C69.3782 38.8966 69.6897 37.6843 69.7074 36.4501C69.6375 35.2943 69.2174 34.1873 68.5028 33.2762C67.7882 32.3651 66.8132 31.6933 65.7074 31.3501C64.397 30.8713 62.9889 30.7225 61.6074 30.9167C60.3149 31.1998 59.1468 31.889 58.274 32.8834C57.8074 33.3834 56.6407 34.9501 55.7407 35.7501C55.2478 36.2589 54.6057 36.5975 53.9074 36.7167C52.4995 36.6241 51.1574 36.0873 50.074 35.1834C48.2658 33.8431 46.53 32.4078 44.874 30.8834C42.4265 28.5581 40.4465 25.7861 39.0407 22.7167C37.5573 19.798 36.4378 16.7083 35.7074 13.5167C35.4422 10.843 34.8488 8.21211 33.9407 5.6834C33.6451 5.10986 33.2022 4.62537 32.6574 4.27973C32.1125 3.93409 31.4855 3.73977 30.8407 3.71673C29.774 3.71673 28.9074 4.65006 28.3407 5.71673Z" fill="#020202" />
  <path d="M0.074629 50.0168C0.53376 46.5871 1.41835 43.2279 2.70797 40.0168C3.07887 38.9778 3.65726 38.0252 4.40796 37.2168C5.14666 36.6062 6.0533 36.2343 7.00796 36.1501C8.61944 36.1592 10.2225 36.3834 11.7746 36.8168C14.0825 37.4671 16.4325 37.9571 18.808 38.2835C20.2585 38.4041 21.7158 38.1516 23.0413 37.5501C23.3218 37.4555 23.6275 37.4678 23.8995 37.5849C24.1714 37.7019 24.3905 37.9154 24.5146 38.1843C24.6387 38.4531 24.659 38.7583 24.5716 39.0412C24.4842 39.3241 24.2954 39.5648 24.0413 39.7168C22.4019 40.5548 20.5822 40.9783 18.7413 40.9501C16.2197 40.768 13.7137 40.4116 11.2413 39.8835C10.2847 39.6784 9.31609 39.5337 8.34129 39.4501C6.40796 39.4501 6.5413 40.1501 6.30796 40.7501C5.58649 42.822 4.99642 44.9373 4.5413 47.0835C2.90796 53.7501 4.54129 54.2835 7.47463 54.0501C11.308 53.7501 15.3746 51.5835 18.9413 52.0168C19.6284 52.0951 20.2774 52.3732 20.808 52.8168C21.4107 53.5132 21.9674 54.2481 22.4746 55.0168C23.2721 55.8974 24.1298 56.7216 25.0413 57.4835C25.923 58.2502 26.884 58.9206 27.908 59.4835L31.608 61.1168C31.7379 61.1616 31.8577 61.2318 31.9601 61.3235C32.0626 61.4151 32.1458 61.5263 32.2047 61.6504C32.2637 61.7746 32.2973 61.9093 32.3036 62.0466C32.3099 62.1839 32.2887 62.3211 32.2413 62.4501C32.1572 62.7109 31.9731 62.9276 31.7293 63.0526C31.4855 63.1776 31.2021 63.2007 30.9413 63.1168L26.8746 61.6168C25.6974 61.0539 24.5806 60.3726 23.5413 59.5835C22.4647 58.8206 21.4504 57.9735 20.508 57.0501C20.0518 56.5681 19.6286 56.0558 19.2413 55.5168C19.1349 55.3707 18.9821 55.265 18.808 55.2168C17.1074 55.2849 15.4344 55.6692 13.8746 56.3501C11.9702 57.0987 9.99283 57.6461 7.97463 57.9835C5.90448 58.2336 3.80929 57.8005 2.00796 56.7501C1.57017 56.4624 1.19427 56.09 0.902336 55.655C0.610406 55.22 0.408328 54.731 0.307961 54.2168C0.00269475 52.8388 -0.0761135 51.4202 0.074629 50.0168Z" fill="#020202" />
</svg>